<?xml version="1.0" encoding="UTF-8" standalone="no"?>
<!-- Created with Inkscape (http://www.inkscape.org/) -->

<svg
   xmlns:dc="http://purl.org/dc/elements/1.1/"
   xmlns:cc="http://creativecommons.org/ns#"
   xmlns:rdf="http://www.w3.org/1999/02/22-rdf-syntax-ns#"
   xmlns:svg="http://www.w3.org/2000/svg"
   xmlns="http://www.w3.org/2000/svg"
   xmlns:xlink="http://www.w3.org/1999/xlink"
   version="1.1"
   width="300"
   height="300"
   viewBox="0 0 300 300"
   id="Calque_1"
   xml:space="preserve"><metadata
     id="metadata210"><rdf:RDF><cc:Work
         rdf:about=""><dc:format>image/svg+xml</dc:format><dc:type
           rdf:resource="http://purl.org/dc/dcmitype/StillImage" /><dc:title></dc:title></cc:Work></rdf:RDF></metadata><defs
     id="defs208"><linearGradient
       x1="369.9639"
       y1="358.82129"
       x2="517.30859"
       y2="358.82129"
       id="linearGradient3869"
       xlink:href="#SVGID_3_"
       gradientUnits="userSpaceOnUse" /><linearGradient
       x1="291.46439"
       y1="265.18069"
       x2="521.02252"
       y2="265.18069"
       id="linearGradient3871"
       xlink:href="#SVGID_3_"
       gradientUnits="userSpaceOnUse" /><linearGradient
       x1="369.9639"
       y1="358.82129"
       x2="517.30859"
       y2="358.82129"
       id="linearGradient3174"
       xlink:href="#SVGID_3_"
       gradientUnits="userSpaceOnUse" /><linearGradient
       x1="291.46439"
       y1="265.18069"
       x2="521.02252"
       y2="265.18069"
       id="linearGradient3176"
       xlink:href="#SVGID_3_"
       gradientUnits="userSpaceOnUse" /><linearGradient
       x1="434.77051"
       y1="335.65039"
       x2="493.7998"
       y2="335.65039"
       id="linearGradient3178"
       xlink:href="#SVGID_5_"
       gradientUnits="userSpaceOnUse" /><linearGradient
       x1="388.83011"
       y1="308.70801"
       x2="433.14841"
       y2="308.70801"
       id="linearGradient3180"
       xlink:href="#SVGID_6_"
       gradientUnits="userSpaceOnUse" /><linearGradient
       x1="277.70169"
       y1="297.54691"
       x2="390.87009"
       y2="297.54691"
       id="linearGradient3182"
       xlink:href="#SVGID_7_"
       gradientUnits="userSpaceOnUse" /></defs><linearGradient
     x1="478.3486"
     y1="217.2314"
     x2="293.09641"
     y2="389.9819"
     id="SVGID_1_"
     gradientUnits="userSpaceOnUse"><stop
       id="stop6"
       style="stop-color:#ffffff;stop-opacity:1"
       offset="0" /><stop
       id="stop8"
       style="stop-color:#e3f2fc;stop-opacity:1"
       offset="0.13500001" /><stop
       id="stop10"
       style="stop-color:#9bcff6;stop-opacity:1"
       offset="0.42739999" /><stop
       id="stop12"
       style="stop-color:#2999eb;stop-opacity:1"
       offset="0.85140002" /><stop
       id="stop14"
       style="stop-color:#0085e7;stop-opacity:1"
       offset="1" /></linearGradient><g
     transform="translate(0,-300)"
     id="XMLID_1_"><g
       id="g53"><linearGradient
         x1="369.9639"
         y1="358.82129"
         x2="517.30859"
         y2="358.82129"
         id="SVGID_3_"
         gradientUnits="userSpaceOnUse"><stop
           id="stop70"
           style="stop-color:#ff6d18;stop-opacity:1"
           offset="0" /><stop
           id="stop72"
           style="stop-color:#c00000;stop-opacity:1"
           offset="1" /></linearGradient><linearGradient
         x1="291.46439"
         y1="265.18069"
         x2="521.02252"
         y2="265.18069"
         id="SVGID_4_"
         gradientUnits="userSpaceOnUse"><stop
           id="stop77"
           style="stop-color:#ffe2a2;stop-opacity:1"
           offset="0" /><stop
           id="stop79"
           style="stop-color:#fcdd9d;stop-opacity:1"
           offset="0.0093" /><stop
           id="stop81"
           style="stop-color:#e9bc81;stop-opacity:1"
           offset="0.0737" /><stop
           id="stop83"
           style="stop-color:#d8a168;stop-opacity:1"
           offset="0.1461" /><stop
           id="stop85"
           style="stop-color:#cb8a54;stop-opacity:1"
           offset="0.2274" /><stop
           id="stop87"
           style="stop-color:#c17945;stop-opacity:1"
           offset="0.3215" /><stop
           id="stop89"
           style="stop-color:#b96d3a;stop-opacity:1"
           offset="0.43650001" /><stop
           id="stop91"
           style="stop-color:#b56634;stop-opacity:1"
           offset="0.59460002" /><stop
           id="stop93"
           style="stop-color:#b46432;stop-opacity:1"
           offset="1" /></linearGradient><linearGradient
         x1="434.77051"
         y1="335.65039"
         x2="493.7998"
         y2="335.65039"
         id="SVGID_5_"
         gradientUnits="userSpaceOnUse"><stop
           id="stop98"
           style="stop-color:#dcaf91;stop-opacity:1"
           offset="0" /><stop
           id="stop100"
           style="stop-color:#c69e83;stop-opacity:1"
           offset="0.0935" /><stop
           id="stop102"
           style="stop-color:#b59178;stop-opacity:1"
           offset="0.2032" /><stop
           id="stop104"
           style="stop-color:#a98870;stop-opacity:1"
           offset="0.3382" /><stop
           id="stop106"
           style="stop-color:#a2826b;stop-opacity:1"
           offset="0.52399999" /><stop
           id="stop108"
           style="stop-color:#a0816a;stop-opacity:1"
           offset="1" /></linearGradient><linearGradient
         x1="388.83011"
         y1="308.70801"
         x2="433.14841"
         y2="308.70801"
         id="SVGID_6_"
         gradientUnits="userSpaceOnUse"><stop
           id="stop113"
           style="stop-color:#dcaf91;stop-opacity:1"
           offset="0" /><stop
           id="stop115"
           style="stop-color:#c69e83;stop-opacity:1"
           offset="0.0935" /><stop
           id="stop117"
           style="stop-color:#b59178;stop-opacity:1"
           offset="0.2032" /><stop
           id="stop119"
           style="stop-color:#a98870;stop-opacity:1"
           offset="0.3382" /><stop
           id="stop121"
           style="stop-color:#a2826b;stop-opacity:1"
           offset="0.52399999" /><stop
           id="stop123"
           style="stop-color:#a0816a;stop-opacity:1"
           offset="1" /></linearGradient><linearGradient
         x1="277.70169"
         y1="297.54691"
         x2="390.87009"
         y2="297.54691"
         id="SVGID_7_"
         gradientUnits="userSpaceOnUse"><stop
           id="stop128"
           style="stop-color:#dcaf91;stop-opacity:1"
           offset="0" /><stop
           id="stop130"
           style="stop-color:#c69e83;stop-opacity:1"
           offset="0.0935" /><stop
           id="stop132"
           style="stop-color:#b59178;stop-opacity:1"
           offset="0.2032" /><stop
           id="stop134"
           style="stop-color:#a98870;stop-opacity:1"
           offset="0.3382" /><stop
           id="stop136"
           style="stop-color:#a2826b;stop-opacity:1"
           offset="0.52399999" /><stop
           id="stop138"
           style="stop-color:#a0816a;stop-opacity:1"
           offset="1" /></linearGradient></g></g><g
     transform="matrix(1.226639,0,0,1.226639,-339.87329,-215.90216)"
     id="g3125"><path
       d="M 413.762,278.169 C 413,282 416,282 418.091,282.802"
       id="path34"
       style="fill:none;stroke:#000000;stroke-linecap:round" /><line
       id="line36"
       y2="289.38901"
       x2="293.97198"
       y1="289.38901"
       x1="293.97198"
       style="fill:none;stroke:#000000" /><line
       id="line38"
       y2="318.78799"
       x2="388.99701"
       y1="319.64899"
       x1="390.87601"
       style="fill:none;stroke:#000000" /><line
       id="line40"
       y2="318.78799"
       x2="403.229"
       y1="318.84799"
       x1="403.65201"
       style="fill:none;stroke:#000000" /><line
       id="line42"
       y2="324.612"
       x2="408.54401"
       y1="323.90799"
       x1="408.45001"
       style="fill:none;stroke:#000000" /><line
       id="line44"
       y2="332.155"
       x2="445.19601"
       y1="331.28299"
       x1="444.935"
       style="fill:none;stroke:#000000" /><line
       id="line46"
       y2="338.76199"
       x2="457.20599"
       y1="338.24899"
       x1="456.354"
       style="fill:none;stroke:#000000" /><line
       id="line48"
       y2="345.63699"
       x2="481.51199"
       y1="345.478"
       x1="480.83499"
       style="fill:none;stroke:#000000" /><line
       id="line50"
       y2="313.75201"
       x2="511.319"
       y1="315.077"
       x1="512.05103"
       style="fill:none;stroke:#000000" /><g
       id="g3071"><path
         d="m 452.27,347.89 1.7,-1.949 c 2.021,1.609 5.011,1.02 7.971,0.88 0.35,-0.03 0.689,-0.07 1.029,-0.12 1.24,-0.19 2.41,-0.48 3.42,-0.95 -0.27,0.76 -0.39,1.57 -0.39,2.25 0.17,0.25 0.34,0.46 0.52,0.65 1.16,1.119 2.381,1.529 3.61,1.569 0.311,0.011 0.62,-0.01 0.93,-0.029 2.94,-0.19 5.94,-1.19 9.29,-3.46 0.24,-0.181 0.471,-0.37 0.69,-0.551 0.22,-0.18 0.44,-0.359 0.65,-0.529 l 1.85,-1.33 c 0.02,-0.021 0.05,-0.04 0.08,-0.051 3.56,-2.35 7.229,-4.859 10.13,-7.26 0.02,-0.02 0.04,-0.029 0.05,-0.04 0.94,-0.779 1.8,-1.55 2.54,-2.29 1.07,-1.069 2.101,-2.18 3.09,-3.319 3.681,-4.311 6.92,-8.96 9.69,-13.891 0.63,-0.989 1.229,-2 1.81,-3.029 l 1.12,0.64 C 517,322 518,329 516.91,336.86 c -0.04,0.729 -0.09,1.46 -0.17,2.189 -0.07,0.73 -0.16,1.46 -0.271,2.181 -0.42,2.909 -1.13,5.779 -2.1,8.579 -9.9,24.95 -33.64,40.82 -58.59,47.671 -3.12,0.859 -6.261,1.579 -9.391,2.149 C 438,400 430,403 422.42,402.19 c -2.439,0.159 -4.88,0.279 -7.31,0.35 C 394,406 364,396 371,370 c 8,-26 45,-28 68.68,-27.27 2.96,0.6 5.851,1.539 8.63,2.89 1.34,0.65 2.67,1.41 3.96,2.27 z"
         id="path74"
         style="fill:url(#linearGradient3174);fill-opacity:1" /><path
         d="m 332.62,213.47 c 10.69,-8.06 22.66,-13.49 35.26,-16.67 6.35,-1.6 12.85,-2.63 19.43,-3.13 48.06,-2.65 105.06,13.35 128.06,59.35 9.49,18.03 6.37,42.36 -4.44,61.42 -0.58,1.029 -1.18,2.04 -1.81,3.029 -2.771,4.931 -6.01,9.58 -9.69,13.891 -0.989,1.14 -2.02,2.25 -3.09,3.319 -0.74,0.74 -1.6,1.511 -2.54,2.29 0,0 -0.62,-0.229 -1.689,-0.649 -0.271,-0.101 -0.57,-0.21 -0.9,-0.33 -1.26,0.3 -2.33,0.149 -3.27,-0.221 -0.32,-0.119 -0.62,-0.27 -0.921,-0.43 -0.67,-0.55 -1.279,-1.02 -1.859,-1.41 -0.3,-0.199 -0.58,-0.37 -0.86,-0.52 -0.33,-0.04 -0.66,-0.101 -0.979,-0.17 -3.32,-2.24 -6.32,-2.24 -9.98,-1.8 -0.34,-0.25 -0.649,-0.49 -0.939,-0.75 -0.98,-0.851 -1.74,-1.74 -2.431,-2.601 -0.229,-0.29 -0.45,-0.57 -0.66,-0.84 C 466,323 460,326 458.11,322.45 c -0.33,-0.12 -0.67,-0.23 -1,-0.34 -1.641,-0.561 -3.221,-1.061 -4.721,-1.03 l -0.029,0.04 C 450,322 447,322 444.88,322.3 c -0.3,0.08 -0.59,0.19 -0.88,0.33 -0.26,0.12 -0.53,0.23 -0.79,0.33 -0.01,0 -0.02,0 -0.02,0 -0.9,0.04 -1.801,0.06 -2.66,0.1 -0.32,0.011 -0.63,0.021 -0.94,0.03 C 437,323 434,321 431.25,319.01 c -0.2,-0.22 -0.39,-0.46 -0.56,-0.72 -0.471,-0.74 -0.771,-1.64 -0.83,-2.771 0.14,-0.199 0.279,-0.399 0.43,-0.6 0.34,-0.65 0.65,-1.32 0.92,-2.01 1.67,-4.11 2.24,-8.82 1.79,-12.91 -0.33,-2 -1.33,-3.33 -2.71,-4.25 -0.69,-0.46 -1.47,-0.81 -2.32,-1.09 -1.14,-0.07 -2.3,-0.16 -3.46,-0.28 -0.229,-0.02 -0.46,-0.04 -0.7,-0.07 C 421,294 417,295 413.94,293.94 c -0.341,-0.04 -0.69,-0.07 -1.04,-0.1 -1.74,-0.15 -3.58,-0.46 -5.271,-1.08 -0.34,-0.15 -0.68,-0.31 -1.01,-0.48 -1.62,-0.83 -3.11,-1.88 -4.61,-2.48 -0.33,-0.06 -0.66,-0.11 -0.97,-0.18 -0.63,-0.12 -1.23,-0.24 -1.78,-0.39 -0.34,-0.02 -0.68,-0.02 -1.01,-0.01 -0.3,0 -0.6,0.02 -0.9,0.04 -0.29,0.02 -0.59,0.05 -0.89,0.08 -0.35,0.17 -0.7,0.33 -1.05,0.48 -0.35,0.16 -0.7,0.32 -1.05,0.47 -0.56,0.46 -1.05,0.91 -1.49,1.38 -0.21,0.24 -0.41,0.48 -0.6,0.73 -1.27,2.6 -2.27,6.6 -1.66,9.67 l -1.78,3.319 -0.08,0.15 c -0.87,-2.05 -1.91,-4.04 -3.01,-6.05 -0.58,-1.06 -1.18,-2.12 -1.76,-3.2 C 380,291 380,285 377.77,278.52 l 2.84,-0.77 C 385,264 368,260 357.5,258.11 c -1.05,-0.19 -2.1,-0.36 -3.16,-0.5 -5.28,-0.75 -10.68,-1.02 -16.07,-0.83 -1.62,0.06 -3.24,0.15 -4.86,0.29 -1.62,0.13 -3.24,0.3 -4.87,0.5 C 321,258 313,259 306,262 c -5,3 -12,9 -9.29,15.47 l 3.39,-2.11 c -1.79,4.66 -3.57,9.57 -6.01,14.13 l -0.12,-0.1 C 286,265 298,239 316.43,223.21 c 2.09,-1.71 4.28,-3.28 6.56,-4.71 2.28,-1.44 4.63,-2.73 7.06,-3.88 0.85,-0.4 1.7,-0.78 2.57,-1.15 z"
         id="path95"
         style="fill:url(#linearGradient3176);fill-opacity:1" /><path
         d="m 453.97,345.94 c -0.66,-0.53 -1.22,-1.311 -1.64,-2.421 -0.061,-0.329 -0.08,-0.649 -0.07,-0.96 0.061,-1.409 0.82,-2.6 2.061,-3.39 -0.011,0.01 -0.03,0.01 -0.04,0.021 -0.36,0.13 -0.721,0.239 -1.07,0.329 C 450,340 447,342 444,341 c -0.21,-0.08 -0.4,-0.18 -0.59,-0.28 -3.26,-1.76 -2.82,-5.979 -0.46,-7.91 -0.34,0.15 -0.681,0.271 -1.03,0.351 C 440,333 438,334 437,333 c -3,-2 -3,-5 0.17,-8.17 0.25,-0.15 0.51,-0.29 0.78,-0.4 0.53,-0.21 1.08,-0.319 1.609,-0.29 0.29,-0.1 0.58,-0.189 0.87,-0.279 0.91,-0.271 1.83,-0.53 2.761,-0.9 0,0 0.01,0 0.02,0 0.26,-0.1 0.53,-0.21 0.79,-0.33 0.29,-0.14 0.58,-0.25 0.88,-0.33 2.12,-0.3 5.12,-0.3 7.48,-1.18 l 0.029,-0.04 c 1.5,-0.03 3.08,0.47 4.721,1.03 0.33,0.109 0.67,0.22 1,0.34 1.89,3.549 7.89,0.549 11.2,4.799 0.21,0.27 0.431,0.55 0.66,0.84 0.69,0.86 1.45,1.75 2.431,2.601 0.29,0.26 0.6,0.5 0.939,0.75 3.66,-0.44 6.66,-0.44 9.98,1.8 0.319,0.069 0.649,0.13 0.979,0.17 0.28,0.149 0.561,0.32 0.86,0.52 0.58,0.391 1.189,0.86 1.859,1.41 0.301,0.16 0.601,0.311 0.921,0.43 0.939,0.37 2.01,0.521 3.27,0.221 0.33,0.12 0.63,0.229 0.9,0.33 1.069,0.42 1.689,0.649 1.689,0.649 -0.01,0.011 -0.03,0.021 -0.05,0.04 l -10.13,7.26 c -0.03,0.011 -0.061,0.03 -0.08,0.051 l -1.85,1.33 c -0.21,0.17 -0.431,0.35 -0.65,0.529 -0.22,0.181 -0.45,0.37 -0.69,0.551 C 477,349 474,350 471.06,350.19 c -0.31,0.02 -0.619,0.04 -0.93,0.029 -1.229,-0.04 -2.45,-0.45 -3.61,-1.569 -0.18,-0.19 -0.35,-0.4 -0.52,-0.65 0,-0.68 0.12,-1.49 0.39,-2.25 0.11,-0.05 0.221,-0.11 0.33,-0.16 0.271,-0.16 0.53,-0.34 0.8,-0.54 0.761,-0.569 1.54,-1.319 2.391,-2.25 -1.91,0.141 -3,1.48 -3.521,2.95 -1.01,0.47 -2.18,0.76 -3.42,0.95 -0.34,0.05 -0.68,0.09 -1.029,0.12 -2.961,0.14 -5.951,0.73 -7.971,-0.88 z m 2.09,-7.55 c -0.64,0.19 -1.229,0.45 -1.729,0.78 0.33,-0.14 0.68,-0.29 1.03,-0.47 0.229,-0.09 0.459,-0.19 0.699,-0.31 z m 0.37,-0.09 c -0.02,-0.02 -0.05,-0.03 -0.08,-0.05 -0.09,0.05 -0.18,0.1 -0.27,0.13 0.11,-0.03 0.23,-0.06 0.35,-0.08 z"
         id="path110"
         style="fill:url(#linearGradient3178)" /><path
         d="m 394.16,317.38 c -1.18,0.84 -2.39,1.58 -3.28,2.271 l -1.49,-0.5 c 0.16,-0.32 0.3,-0.631 0.41,-0.94 0.06,-0.96 0.28,-1.91 0.51,-2.85 0.04,-0.141 0.07,-0.271 0.1,-0.41 0.04,-0.141 0.08,-0.29 0.11,-0.44 0.01,-0.029 0.01,-0.05 0.02,-0.08 0.18,-0.43 0.29,-0.84 0.35,-1.22 0.06,-0.39 0.06,-0.76 0.03,-1.11 0.08,-2.1 -0.92,-4.1 -1.84,-6.569 l -0.25,-0.141 1.78,-3.319 C 390,299 391,295 392.27,292.4 c 0.19,-0.25 0.39,-0.49 0.6,-0.73 0.44,-0.47 0.93,-0.92 1.49,-1.38 0.35,-0.15 0.7,-0.31 1.05,-0.47 0.35,-0.15 0.7,-0.31 1.05,-0.48 0.3,-0.03 0.6,-0.06 0.89,-0.08 0.3,-0.02 0.6,-0.04 0.9,-0.04 0.33,-0.01 0.67,-0.01 1.01,0.01 0.55,0.15 1.15,0.27 1.78,0.39 0.31,0.07 0.64,0.12 0.97,0.18 1.5,0.6 2.99,1.65 4.61,2.48 0.33,0.17 0.67,0.33 1.01,0.48 1.69,0.62 3.53,0.93 5.271,1.08 0.35,0.03 0.699,0.06 1.04,0.1 3.059,1.06 7.059,0.06 9.869,0.37 0.24,0.03 0.471,0.05 0.7,0.07 1.16,0.12 2.32,0.21 3.46,0.28 0.851,0.28 1.63,0.63 2.32,1.09 1.38,0.92 2.38,2.25 2.71,4.25 0.45,4.09 -0.12,8.8 -1.79,12.91 -0.27,0.689 -0.58,1.359 -0.92,2.01 -0.15,0.2 -0.29,0.4 -0.43,0.6 -2,2.87 -3.021,5.641 -5.391,7.98 -0.229,0.26 -0.47,0.51 -0.72,0.75 C 422,327 418,329 413.68,327.89 c -0.319,-0.05 -0.64,-0.12 -0.949,-0.21 -2.011,-0.569 -3.801,-1.92 -4.521,-3.75 -2.4,0.2 -5.27,2.04 -7.21,1.07 -1,-1 0,-3 1.4,-5.13 0.199,-0.2 0.409,-0.38 0.619,-0.55 0.211,-0.17 0.431,-0.33 0.631,-0.471 l -0.11,-0.22 c -0.98,0.49 -2.05,0.89 -3.19,1.29 -0.29,0.1 -0.58,0.2 -0.87,0.3 -0.25,0.3 -0.51,0.49 -0.78,0.61 C 397,321 395,322 394,320 c 0,-0.83 0,-1.67 0.16,-2.62 z"
         id="path125"
         style="fill:url(#linearGradient3180)" /><path
         d="m 390.87,312.59 c -0.08,0.63 -0.19,1.24 -0.33,1.84 -0.01,0.03 -0.01,0.051 -0.02,0.08 -0.04,0.15 -0.07,0.29 -0.11,0.44 -0.15,0.6 -0.33,1.189 -0.54,1.77 -1.41,3.931 -4,7.29 -7.25,10.05 -1.63,1.37 -3.41,2.601 -5.3,3.681 C 348,343 309,341 283.17,321.86 c -1.89,-1.98 -3.41,-4.17 -4.36,-6.62 -0.95,-2.45 -1.34,-5.15 -0.97,-8.12 C 278.25,306 279,305 280,304 c 6.75,-3.38 10.97,-8.65 14.09,-14.51 2.44,-4.56 4.22,-9.47 6.01,-14.13 l -3.39,2.11 C 294,271 301,265 306,262 c 7,-3 15,-4 22.54,-4.43 1.63,-0.2 3.25,-0.37 4.87,-0.5 1.62,-0.14 3.24,-0.23 4.86,-0.29 5.39,-0.19 10.79,0.08 16.07,0.83 1.06,0.14 2.11,0.31 3.16,0.5 10.5,1.89 27.5,5.89 23.11,19.64 l -2.84,0.77 c 2.23,6.48 2.23,12.48 6.21,17.77 0.58,1.08 1.18,2.14 1.76,3.2 1.1,2.01 2.14,4 3.01,6.05 0.97,2.28 1.72,4.6 2.12,7.05 z"
         id="path140"
         style="fill:url(#linearGradient3182)" /><path
         d="m 390.41,314.95 c 0.04,-0.15 0.07,-0.29 0.11,-0.44 -0.03,0.15 -0.07,0.3 -0.11,0.44 z"
         id="path142"
         style="fill:#afa7a7" /></g><g
       id="g144"><path
         d="m 456.29,350.99 c -1.3,-1.16 -2.65,-2.19 -4.021,-3.101 -1.289,-0.859 -2.619,-1.62 -3.96,-2.27 -2.779,-1.351 -5.67,-2.29 -8.63,-2.89 C 416,342 379,344 371,370 c -7,26 23,36 44.11,32.54 2.43,-0.07 4.87,-0.19 7.31,-0.35 7.58,0.81 15.58,-2.19 23.97,-2.56 3.13,-0.57 6.271,-1.29 9.391,-2.149 24.95,-6.851 48.689,-22.721 58.59,-47.671 0.97,-2.8 1.68,-5.67 2.1,-8.579 0.11,-0.721 0.2,-1.45 0.271,-2.181 0.08,-0.729 0.13,-1.46 0.17,-2.189 C 518,329 517,322 512.05,315.08"
         id="path146"
         style="fill:none;stroke:#000000;stroke-width:1.25" /><polyline
         id="polyline148"
         points="453.97,345.94 452.27,347.89 451.89,348.32   "
         style="fill:none;stroke:#000000;stroke-width:1.25" /><path
         d="M 293.97,289.39 C 286,265 298,239 316.43,223.21 c 2.09,-1.71 4.28,-3.28 6.56,-4.71 2.28,-1.44 4.63,-2.73 7.06,-3.88 0.85,-0.4 1.7,-0.78 2.57,-1.15 1.61,-0.69 3.25,-1.31 4.91,-1.87 19.48,-6.36 43.12,-3.14 59.74,8.34 2.77,1.92 5.35,4.06 7.68,6.43 C 418,240 422,261 413.76,278.17"
         id="path150"
         style="fill:none;stroke:#000000;stroke-width:1.25;stroke-linecap:round" /><path
         d="m 493.75,337.01 c -2.9,2.4 -6.57,4.91 -10.13,7.26"
         id="path152"
         style="fill:none;stroke:#000000;stroke-width:1.25" /><path
         d="m 332.38,213.65 c 0.08,-0.06 0.16,-0.12 0.24,-0.18 10.69,-8.06 22.66,-13.49 35.26,-16.67 6.35,-1.6 12.85,-2.63 19.43,-3.13 48.06,-2.65 105.06,13.35 128.06,59.35 9.49,18.03 6.37,42.36 -4.44,61.42 -0.58,1.029 -1.18,2.04 -1.81,3.029 -2.771,4.931 -6.01,9.58 -9.69,13.891 -0.989,1.14 -2.02,2.25 -3.09,3.319 -0.74,0.74 -1.6,1.511 -2.54,2.29"
         id="path154"
         style="fill:none;stroke:#000000;stroke-width:1.25" /><path
         d="M 296.71,277.47 C 294,271 301,265 306,262 c 7,-3 15,-4 22.54,-4.43 1.63,-0.2 3.25,-0.37 4.87,-0.5 1.62,-0.14 3.24,-0.23 4.86,-0.29 5.39,-0.19 10.79,0.08 16.07,0.83 1.06,0.14 2.11,0.31 3.16,0.5 10.5,1.89 27.5,5.89 23.11,19.64"
         id="path156"
         style="fill:none;stroke:#000000;stroke-width:1.25" /><path
         d="m 390.54,314.43 c 0.14,-0.6 0.25,-1.21 0.33,-1.84 -0.4,-2.45 -1.15,-4.77 -2.12,-7.05 -0.87,-2.05 -1.91,-4.04 -3.01,-6.05 -0.58,-1.06 -1.18,-2.12 -1.76,-3.2 C 380,291 380,285 377.77,278.52"
         id="path158"
         style="fill:none;stroke:#000000;stroke-width:1.25" /><path
         d="m 300.1,275.36 c -1.79,4.66 -3.57,9.57 -6.01,14.13 -3.12,5.86 -7.34,11.13 -14.09,14.51 -1,1 -1.75,2 -2.16,3.12 -0.37,2.97 0.02,5.67 0.97,8.12 0.95,2.45 2.47,4.64 4.36,6.62 C 309,341 348,343 377.32,330.45 c 1.89,-1.08 3.67,-2.311 5.3,-3.681 3.25,-2.76 5.84,-6.119 7.25,-10.05 0.21,-0.58 0.39,-1.17 0.54,-1.77"
         id="path160"
         style="fill:none;stroke:#000000;stroke-width:1.25" /><line
         id="line162"
         y2="277.47"
         x2="296.70999"
         y1="275.35999"
         x1="300.10001"
         style="fill:none;stroke:#000000;stroke-width:1.25" /><line
         id="line164"
         y2="277.75"
         x2="380.60999"
         y1="278.51999"
         x1="377.76999"
         style="fill:none;stroke:#000000;stroke-width:1.25" /><path
         d="M 390.61,302.07 C 390,299 391,295 392.27,292.4 c 0.19,-0.25 0.39,-0.49 0.6,-0.73 0.44,-0.47 0.93,-0.92 1.49,-1.38 0.35,-0.15 0.7,-0.31 1.05,-0.47 0.35,-0.15 0.7,-0.31 1.05,-0.48 0.3,-0.03 0.6,-0.06 0.89,-0.08 0.3,-0.02 0.6,-0.04 0.9,-0.04 0.33,-0.01 0.67,-0.01 1.01,0.01 0.55,0.15 1.15,0.27 1.78,0.39 0.31,0.07 0.64,0.12 0.97,0.18 1.5,0.6 2.99,1.65 4.61,2.48 0.33,0.17 0.67,0.33 1.01,0.48 1.69,0.62 3.53,0.93 5.271,1.08 0.35,0.03 0.699,0.06 1.04,0.1 3.059,1.06 7.059,0.06 9.869,0.37 0.24,0.03 0.471,0.05 0.7,0.07 1.16,0.12 2.32,0.21 3.46,0.28 0.851,0.28 1.63,0.63 2.32,1.09 1.38,0.92 2.38,2.25 2.71,4.25 0.45,4.09 -0.12,8.8 -1.79,12.91 -0.27,0.689 -0.58,1.359 -0.92,2.01 -0.15,0.2 -0.29,0.4 -0.43,0.6 -2,2.87 -3.021,5.641 -5.391,7.98 -0.229,0.26 -0.47,0.51 -0.72,0.75 C 422,327 418,329 413.68,327.89 c -0.319,-0.05 -0.64,-0.12 -0.949,-0.21 -2.011,-0.569 -3.801,-1.92 -4.521,-3.75 -0.07,-0.16 -0.12,-0.34 -0.17,-0.51"
         id="path166"
         style="fill:none;stroke:#000000;stroke-width:1.25" /><path
         d="M 418.63,317.53 C 416,320 413,323 409.37,323.68 c -0.3,0.08 -0.61,0.16 -0.92,0.23 -0.08,0 -0.16,0.01 -0.24,0.02 -2.4,0.2 -5.27,2.04 -7.21,1.07 -1,-1 0,-3 1.4,-5.13 0.199,-0.2 0.409,-0.38 0.619,-0.55 0.211,-0.17 0.431,-0.33 0.631,-0.471"
         id="path168"
         style="fill:none;stroke:#000000;stroke-width:1.25" /><path
         d="M 410.21,310.63 C 410,313 410,314 408.19,315.42 c -0.21,0.24 -0.44,0.47 -0.681,0.71 -0.25,0.23 -0.52,0.46 -0.8,0.69 -0.27,0.199 -0.54,0.38 -0.82,0.529 -0.27,0.15 -0.54,0.28 -0.81,0.391 -0.26,0.18 -0.53,0.35 -0.811,0.51 -0.239,0.14 -0.479,0.26 -0.729,0.38 -0.98,0.49 -2.05,0.89 -3.19,1.29 -0.29,0.1 -0.58,0.2 -0.87,0.3 -0.25,0.3 -0.51,0.49 -0.78,0.61 C 397,321 395,322 394,320 c 0,-0.83 0,-1.67 0.16,-2.62 0.03,-0.189 0.06,-0.39 0.11,-0.59 0.2,-0.17 0.46,-0.31 0.8,-0.41 0.23,-0.26 0.5,-0.5 0.81,-0.72 0.18,-0.3 0.35,-0.59 0.5,-0.86 0.15,-0.28 0.28,-0.54 0.37,-0.79"
         id="path170"
         style="fill:none;stroke:#000000;stroke-width:1.25" /><path
         d="M 400.33,307.28 C 400,309 400,311 397.96,313.33 c -0.1,0.26 -0.23,0.52 -0.38,0.78 -0.73,1.229 -2.05,2.31 -3.42,3.27 -1.18,0.84 -2.39,1.58 -3.28,2.271"
         id="path172"
         style="fill:none;stroke:#000000;stroke-width:1.25" /><polyline
         id="polyline174"
         points="390.61,302.07 388.83,305.39 388.75,305.54   "
         style="fill:none;stroke:#000000;stroke-width:1.25" /><path
         d="m 389.08,305.53 c 0.92,2.47 1.92,4.47 1.84,6.57 0.03,0.351 0.03,0.721 -0.03,1.11 -0.06,0.38 -0.17,0.79 -0.35,1.22 -0.01,0.03 -0.01,0.051 -0.02,0.08 -0.04,0.15 -0.07,0.29 -0.11,0.44 -0.03,0.14 -0.06,0.27 -0.1,0.41 -0.23,0.939 -0.45,1.89 -0.51,2.85 -0.11,0.31 -0.25,0.62 -0.41,0.94"
         id="path176"
         style="fill:none;stroke:#000000;stroke-width:1.25" /><path
         d="m 443.19,322.96 c -0.931,0.37 -1.851,0.63 -2.761,0.9 -0.29,0.09 -0.58,0.18 -0.87,0.279 -0.529,-0.029 -1.079,0.08 -1.609,0.29 -0.271,0.11 -0.53,0.25 -0.78,0.4 C 434,328 434,331 437,333 c 1,1 3,0 4.92,0.16 0.35,-0.08 0.69,-0.2 1.03,-0.351 0.34,-0.149 0.68,-0.35 1.01,-0.579 0.31,-0.08 0.62,-0.16 0.91,-0.221 0.3,-0.06 0.59,-0.09 0.86,-0.1"
         id="path178"
         style="fill:none;stroke:#000000;stroke-width:1.25" /><path
         d="M 452.36,321.12 C 450,322 447,322 444.88,322.3 c -0.3,0.08 -0.59,0.19 -0.88,0.33 -0.26,0.12 -0.53,0.23 -0.79,0.33"
         id="path180"
         style="fill:none;stroke:#000000;stroke-width:1.25" /><path
         d="m 456.08,338.38 c 0.09,-0.03 0.18,-0.08 0.27,-0.13 0.03,0.02 0.061,0.03 0.08,0.05 0.49,0.29 0.78,0.46 0.78,0.46"
         id="path182"
         style="fill:none;stroke:#000000;stroke-width:1.25" /><path
         d="m 454.33,339.17 c 0.33,-0.14 0.68,-0.29 1.03,-0.47 0.229,-0.09 0.46,-0.19 0.699,-0.311"
         id="path184"
         style="fill:none;stroke:#000000;stroke-width:1.25" /><path
         d="m 445.55,331.81 c -1.01,0.04 -1.89,0.421 -2.6,1 -2.36,1.931 -2.8,6.15 0.46,7.91 0.189,0.101 0.38,0.2 0.59,0.28 3,1 6,-1 9.21,-1.48 0.35,-0.09 0.71,-0.199 1.07,-0.329 0.01,-0.011 0.029,-0.011 0.04,-0.021"
         id="path186"
         style="fill:none;stroke:#000000;stroke-width:1.25" /><path
         d="m 456.63,338.25 c -0.07,0.01 -0.13,0.03 -0.2,0.05 -0.12,0.021 -0.239,0.05 -0.35,0.08 -0.01,0.01 -0.01,0.01 -0.021,0.01 -0.64,0.19 -1.229,0.45 -1.729,0.78 0,0 -0.01,-0.01 -0.01,0 -1.24,0.79 -2,1.98 -2.061,3.39 -0.01,0.311 0.01,0.631 0.07,0.96 0.42,1.11 0.979,1.891 1.64,2.421 2.021,1.609 5.011,1.02 7.971,0.88 0.35,-0.03 0.689,-0.07 1.029,-0.12 1.24,-0.19 2.41,-0.48 3.42,-0.95 0.11,-0.05 0.221,-0.11 0.33,-0.16 0.271,-0.16 0.53,-0.34 0.8,-0.54 0.761,-0.569 1.54,-1.319 2.391,-2.25 0.05,-0.05 0.09,-0.1 0.14,-0.149"
         id="path188"
         style="fill:none;stroke:#000000;stroke-width:1.25" /><path
         d="m 469.92,342.8 h -0.01 c -1.91,0.141 -3,1.48 -3.521,2.95 -0.27,0.76 -0.39,1.57 -0.39,2.25 0.17,0.25 0.34,0.46 0.52,0.65 1.16,1.119 2.381,1.529 3.61,1.569 0.311,0.011 0.62,-0.01 0.93,-0.029 2.94,-0.19 5.94,-1.19 9.29,-3.46 0.24,-0.181 0.471,-0.37 0.69,-0.551 0.22,-0.18 0.44,-0.359 0.65,-0.529"
         id="path190"
         style="fill:none;stroke:#000000;stroke-width:1.25" /><path
         d="m 452.39,321.08 c 1.5,-0.03 3.08,0.47 4.721,1.03 0.33,0.109 0.67,0.22 1,0.34 1.889,3.55 7.889,0.55 11.199,4.8 0.21,0.27 0.431,0.55 0.66,0.84 0.69,0.86 1.45,1.75 2.431,2.601 0.29,0.26 0.6,0.5 0.939,0.75 3.66,-0.44 6.66,-0.44 9.98,1.8 0.319,0.069 0.649,0.13 0.979,0.17 0.28,0.149 0.561,0.32 0.86,0.52 0.58,0.391 1.189,0.86 1.859,1.41 0.301,0.16 0.601,0.311 0.921,0.43 0.939,0.37 2.01,0.521 3.27,0.221 0.33,0.12 0.63,0.229 0.9,0.33 1.069,0.42 1.689,0.649 1.689,0.649"
         id="path192"
         style="fill:none;stroke:#000000;stroke-width:1.25" /><path
         d="m 481.69,345.65 1.85,-1.33 c 0.02,-0.021 0.05,-0.04 0.08,-0.051 l 10.13,-7.26 c 0.02,-0.02 0.04,-0.029 0.05,-0.04"
         id="path194"
         style="fill:none;stroke:#000000;stroke-width:1.25" /><path
         d="m 443.21,322.96 c 1.11,-0.04 2.2,-0.1 3.2,-0.2"
         id="path196"
         style="fill:none;stroke:#000000;stroke-width:1.25;stroke-linecap:round" /><path
         d="m 443.19,322.96 c 0,0 0.01,0 0.02,0"
         id="path198"
         style="fill:none;stroke:#000000;stroke-width:1.25" /><path
         d="m 429.84,315.27 c 0,0.08 0.01,0.171 0.021,0.25 0.06,1.131 0.359,2.03 0.83,2.771 0.17,0.26 0.359,0.5 0.56,0.72 2.75,1.99 5.75,3.99 8.34,4.08 0.311,-0.01 0.62,-0.02 0.94,-0.03 0.859,-0.04 1.76,-0.06 2.66,-0.1"
         id="path200"
         style="fill:none;stroke:#000000;stroke-width:1.25;stroke-linecap:round" /></g><path
       d="m 373.021,254.783 c 1.155,-2.207 2.997,-3.807 5.133,-4.931 0.306,-0.161 0.618,-0.313 0.935,-0.455 C 382,248 385,247 387.097,250.129"
       id="path202"
       style="fill:none;stroke:#000000;stroke-linecap:round" /><path
       d="M 302.959,247.287 C 307,248 308,250 309.801,254.452 c 0.489,0.513 0.795,0.832 0.795,0.832"
       id="path204"
       style="fill:none;stroke:#000000;stroke-linecap:round" /></g></svg>